<svg id="Layer_1" data-name="Layer 1" xmlns="http://www.w3.org/2000/svg" viewBox="0 0 212.09 39.82"><defs><style>.cls-1{fill:#0f0f0f;}.cls-2{fill:#141412;}</style></defs><path class="cls-1" d="M35.74.7h4.41V39.11H35.74Z"/><polygon class="cls-2" points="29.16 0.49 29.16 0.49 26.05 0.49 24.75 0.49 24.75 39.32 26.05 39.32 26.05 39.33 29.16 39.33 30.13 36.47 30.13 3.35 29.16 0.49"/><polygon class="cls-2" points="17.27 0.26 14.16 0.26 12.86 0.26 12.86 39.56 14.16 39.56 14.16 39.56 17.27 39.56 19.21 37.5 19.21 2.31 17.27 0.26"/><polygon class="cls-2" points="4.41 0 1.3 0 0 0 0 39.81 1.3 39.81 1.3 39.82 4.41 39.82 7.75 37.7 7.75 2.12 4.41 0"/><path class="cls-1" d="M60.75.7h4.42V39.11H60.75Z"/><path class="cls-1" d="M96.46,23.13v16H92.21V23.23c0-4.31-2.39-6.85-6.54-6.85-4.62,0-7.32,3.22-7.32,8.66V39.11H74.09V13.42h4.26v8.82h.1c0-5.86,3.27-9.34,8.72-9.34C93,12.9,96.46,16.69,96.46,23.13Z"/><path class="cls-1" d="M125.73,13.42l-8.25,25.69h-8.2L101,13.42h4.56l7.74,25.38h.1l7.73-25.38Z"/><path class="cls-1" d="M131.07,2.26h4.26V7.71h-4.26Zm0,11.16h4.26V39.11h-4.26Z"/><path class="cls-1" d="M141.51,30.81h4.09c0,3.68,2.5,5.81,6.8,5.81s6.75-1.66,6.75-4.41c0-3.58-3.63-4.21-7.47-4.93-4.47-.78-9.4-1.66-9.4-7.06,0-4.52,3.79-7.32,10.12-7.32s10.13,3.11,10.13,8.51h-4.11c0-3.53-2.18-5.55-6-5.55s-6,1.5-6,4.1c0,2.9,3.27,3.53,6.9,4.15,4.62.83,10,1.82,10,7.73,0,4.88-4,7.79-10.9,7.79S141.51,36.36,141.51,30.81Z"/><path class="cls-1" d="M174.87,16.59v15c0,2.85,1.72,4.51,4.68,4.51a8.54,8.54,0,0,0,3.68-.83v3.32a12.66,12.66,0,0,1-5,1c-4.78,0-7.58-2.86-7.58-7.79V16.59h-4.15V13.42h4.46V4.49h4.26V6.67a7.49,7.49,0,0,1-4.05,6.65v.1h12.51v3.17Z"/><path class="cls-1" d="M186.91,26.24c0-8.36,4.73-13.34,12.62-13.34s12.56,5,12.56,13.34-4.67,13.39-12.56,13.39S186.91,34.65,186.91,26.24Zm20.87,0c0-6.18-3.06-9.86-8.25-9.86s-8.26,3.68-8.26,9.86,3.07,9.86,8.26,9.86S207.78,32.47,207.78,26.24Z"/></svg>